<svg width="16" height="19" viewBox="0 0 16 19" fill="none" xmlns="http://www.w3.org/2000/svg">
<g clip-path="url(#clip0_24_535)">
<path d="M8.02085 19C6.49823 19 4.97561 19.0083 3.45299 18.9918C3.03697 18.9835 2.596 18.9423 2.19662 18.827C0.882007 18.415 0.116537 17.4922 0.0333335 16.141C-0.0748308 14.4189 0.124857 12.7298 0.94857 11.1726C1.58924 9.96142 2.58768 9.25283 3.98549 9.21164C4.28502 9.2034 4.61784 9.32699 4.89241 9.45882C5.44987 9.73072 5.96573 10.1015 6.53151 10.3322C7.82116 10.876 9.06921 10.6535 10.259 9.98614C10.467 9.87079 10.675 9.75543 10.8581 9.59889C11.4655 9.09628 12.1394 9.121 12.8383 9.31875C13.8534 9.59889 14.569 10.2416 15.0432 11.1396C15.9085 12.7958 16.1332 14.5755 15.9418 16.3964C15.7837 17.9042 14.4608 18.9423 12.8134 18.9918C12.7634 18.9918 12.7135 18.9918 12.6636 18.9918C11.116 19 9.56844 19 8.02085 19Z" fill="#A9AAAE"/>
<path d="M3.26172 4.58109C3.26172 2.04336 5.30852 0.00823349 7.86286 -5.88535e-06C10.4338 -0.00824526 12.5139 2.0516 12.5056 4.58933C12.4973 7.11882 10.4422 9.1457 7.8795 9.1457C5.30852 9.1457 3.27004 7.12705 3.26172 4.58109Z" fill="#A9AAAE"/>
</g>
<defs>
<clipPath id="clip0_24_535">
<rect width="16" height="19" fill="white"/>
</clipPath>
</defs>
</svg>
