<svg width="18" height="18" viewBox="0 0 18 18" fill="none" xmlns="http://www.w3.org/2000/svg">
<g clip-path="url(#clip0_24_546)">
<path d="M9.01262 0C13.9762 0 18.0126 4.05536 18.0063 9.03153C18 13.9762 13.951 18.0063 8.9937 18.0063C4.03014 18 -0.00629956 13.9446 7.38089e-06 8.97477C0.00631432 4.02383 4.05537 0 9.01262 0ZM16.2908 8.98739C16.2782 4.97617 12.9923 1.69657 8.9937 1.70918C4.97618 1.72179 1.70288 5.00771 1.70919 9.01261C1.7218 13.0238 5.00772 16.3034 9.01262 16.2908C13.0238 16.2782 16.3034 12.9923 16.2908 8.98739Z" fill="#A9AAAE"/>
<path d="M2.83164 9.5235C3.17852 9.5235 3.50648 9.5298 3.82813 9.5235C4.18763 9.51088 4.41468 9.30906 4.42099 9.01263C4.42729 8.70359 4.19394 8.48916 3.81552 8.47654C3.48756 8.47024 3.1596 8.47654 2.83794 8.47654C2.88209 5.68257 5.53101 2.91383 8.47635 2.83814C8.47635 3.1661 8.47004 3.48776 8.47635 3.81572C8.48265 4.19413 8.69709 4.4338 9.00613 4.42749C9.31517 4.42118 9.51699 4.18783 9.5233 3.8031C9.5296 3.48776 9.5233 3.17241 9.5233 2.86337C11.8253 2.40927 15.2878 5.83394 15.168 8.47654C14.859 8.47654 14.5499 8.47024 14.2409 8.47654C13.8246 8.48285 13.585 8.67206 13.5724 8.98741C13.566 9.31537 13.812 9.51719 14.2472 9.5235C14.5499 9.5298 14.8527 9.5235 15.1554 9.5235C15.1049 12.3679 12.4119 15.0925 9.51699 15.1619C9.51699 14.8339 9.5233 14.5123 9.51699 14.1843C9.50438 13.7996 9.29625 13.5662 8.98721 13.5725C8.67817 13.5789 8.47635 13.8122 8.47004 14.1969C8.46373 14.5123 8.47004 14.8276 8.47004 15.1367C6.18062 15.6034 2.71181 12.1661 2.83164 9.5235ZM8.97459 8.27472C8.39436 7.77017 7.84565 7.28453 7.28434 6.80521C7.01944 6.57816 6.69148 6.60338 6.50227 6.83043C6.31937 7.05118 6.3446 7.37283 6.58426 7.58096C7.25911 8.18012 7.94026 8.77297 8.62141 9.35951C8.8863 9.58656 9.1575 9.57395 9.40347 9.32798C10.3243 8.39455 11.2388 7.45482 12.147 6.50878C12.3803 6.26281 12.3803 5.92854 12.1659 5.72672C11.9452 5.5249 11.6361 5.54382 11.3838 5.78979C10.7973 6.38264 10.2234 6.9818 9.64313 7.57465C9.42239 7.80801 9.20795 8.03506 8.97459 8.27472Z" fill="#A9AAAE"/>
</g>
<defs>
<clipPath id="clip0_24_546">
<rect width="18" height="18" fill="white"/>
</clipPath>
</defs>
</svg>
